ply
format ascii 1.0
element vertex 118
property float x
property float y
property float z
property float p1
property float p2
end_header
-2.41774201393127441 3.30214095115661621 -0.31153598427772522 0 1
-2.41774201393127441 3.40214085578918457 -0.31153598427772522 0 1
-2.41774201393127441 3.50214099884033203 -0.31153598427772522 0 1
-2.41774201393127441 3.60214090347290039 -0.31153598427772522 0 1
-2.41774201393127441 3.70214080810546875 -0.31153598427772522 0 1
-2.41774201393127441 3.10214090347290039 -0.211535990238189697 0 1
-2.41774201393127441 3.20214080810546875 -0.211535990238189697 0 1
-2.41774201393127441 3.30214095115661621 -0.211535990238189697 0 1
-2.41774201393127441 3.40214085578918457 -0.211535990238189697 0 1
-2.41774201393127441 3.50214099884033203 -0.211535990238189697 0 1
-2.41774201393127441 3.60214090347290039 -0.211535990238189697 0 1
-2.41774201393127441 3.70214080810546875 -0.211535990238189697 0 1
-2.41774201393127441 3.80214095115661621 -0.211535990238189697 0 1
-2.41774201393127441 3.00214099884033203 -0.111535996198654175 0 1
-2.41774201393127441 3.10214090347290039 -0.111535996198654175 0 1
-2.41774201393127441 3.20214080810546875 -0.111535996198654175 0 1
-2.41774201393127441 3.30214095115661621 -0.111535996198654175 0 1
-2.41774201393127441 3.40214085578918457 -0.111535996198654175 0 1
-2.41774201393127441 3.50214099884033203 -0.111535996198654175 0 1
-2.41774201393127441 3.60214090347290039 -0.111535996198654175 0 1
-2.41774201393127441 3.70214080810546875 -0.111535996198654175 0 1
-2.41774201393127441 3.80214095115661621 -0.111535996198654175 0 1
-2.41774201393127441 3.90214085578918457 -0.111535996198654175 0 1
-2.41774201393127441 3.00214099884033203 -0.0115359965711832047 0 1
-2.41774201393127441 3.10214090347290039 -0.0115359965711832047 0 1
-2.41774201393127441 3.20214080810546875 -0.0115359965711832047 0 1
-2.41774201393127441 3.30214095115661621 -0.0115359965711832047 0 1
-2.41774201393127441 3.40214085578918457 -0.0115359965711832047 0 1
-2.41774201393127441 3.50214099884033203 -0.0115359965711832047 0 1
-2.41774201393127441 3.60214090347290039 -0.0115359965711832047 0 1
-2.41774201393127441 3.70214080810546875 -0.0115359965711832047 0 1
-2.41774201393127441 3.80214095115661621 -0.0115359965711832047 0 1
-2.41774201393127441 3.90214085578918457 -0.0115359965711832047 0 1
-2.41774201393127441 4.00214099884033203 -0.0115359965711832047 0 1
-2.41774201393127441 2.90214085578918457 0.088464006781578064 0 1
-2.41774201393127441 3.00214099884033203 0.088464006781578064 0 1
-2.41774201393127441 3.10214090347290039 0.088464006781578064 0 1
-2.41774201393127441 3.20214080810546875 0.088464006781578064 0 1
-2.41774201393127441 3.30214095115661621 0.088464006781578064 0 1
-2.41774201393127441 3.40214085578918457 0.088464006781578064 0 1
-2.41774201393127441 3.50214099884033203 0.088464006781578064 0 1
-2.41774201393127441 3.60214090347290039 0.088464006781578064 0 1
-2.41774201393127441 3.70214080810546875 0.088464006781578064 0 1
-2.41774201393127441 3.80214095115661621 0.088464006781578064 0 1
-2.41774201393127441 3.90214085578918457 0.088464006781578064 0 1
-2.41774201393127441 4.00214099884033203 0.088464006781578064 0 1
-2.41774201393127441 2.90214085578918457 0.188464000821113586 0 1
-2.41774201393127441 3.00214099884033203 0.188464000821113586 0 1
-2.41774201393127441 3.10214090347290039 0.188464000821113586 0 1
-2.41774201393127441 3.20214080810546875 0.188464000821113586 0 1
-2.41774201393127441 3.30214095115661621 0.188464000821113586 0 1
-2.41774201393127441 3.40214085578918457 0.188464000821113586 0 1
-2.41774201393127441 3.50214099884033203 0.188464000821113586 0 1
-2.41774201393127441 3.60214090347290039 0.188464000821113586 0 1
-2.41774201393127441 3.70214080810546875 0.188464000821113586 0 1
-2.41774201393127441 3.80214095115661621 0.188464000821113586 0 1
-2.41774201393127441 3.90214085578918457 0.188464000821113586 0 1
-2.41774201393127441 4.00214099884033203 0.188464000821113586 0 1
-2.41774201393127441 2.90214085578918457 0.288464009761810303 0 1
-2.41774201393127441 3.00214099884033203 0.288464009761810303 0 1
-2.41774201393127441 3.10214090347290039 0.288464009761810303 0 1
-2.41774201393127441 3.20214080810546875 0.288464009761810303 0 1
-2.41774201393127441 3.30214095115661621 0.288464009761810303 0 1
-2.41774201393127441 3.40214085578918457 0.288464009761810303 0 1
-2.41774201393127441 3.50214099884033203 0.288464009761810303 0 1
-2.41774201393127441 3.60214090347290039 0.288464009761810303 0 1
-2.41774201393127441 3.70214080810546875 0.288464009761810303 0 1
-2.41774201393127441 3.80214095115661621 0.288464009761810303 0 1
-2.41774201393127441 3.90214085578918457 0.288464009761810303 0 1
-2.41774201393127441 4.00214099884033203 0.288464009761810303 0 1
-2.41774201393127441 2.90214085578918457 0.388464003801345825 0 1
-2.41774201393127441 3.00214099884033203 0.388464003801345825 0 1
-2.41774201393127441 3.10214090347290039 0.388464003801345825 0 1
-2.41774201393127441 3.20214080810546875 0.388464003801345825 0 1
-2.41774201393127441 3.30214095115661621 0.388464003801345825 0 1
-2.41774201393127441 3.40214085578918457 0.388464003801345825 0 1
-2.41774201393127441 3.50214099884033203 0.388464003801345825 0 1
-2.41774201393127441 3.60214090347290039 0.388464003801345825 0 1
-2.41774201393127441 3.70214080810546875 0.388464003801345825 0 1
-2.41774201393127441 3.80214095115661621 0.388464003801345825 0 1
-2.41774201393127441 3.90214085578918457 0.388464003801345825 0 1
-2.41774201393127441 4.00214099884033203 0.388464003801345825 0 1
-2.41774201393127441 2.90214085578918457 0.488463997840881348 0 1
-2.41774201393127441 3.00214099884033203 0.488463997840881348 0 1
-2.41774201393127441 3.10214090347290039 0.488463997840881348 0 1
-2.41774201393127441 3.20214080810546875 0.488463997840881348 0 1
-2.41774201393127441 3.30214095115661621 0.488463997840881348 0 1
-2.41774201393127441 3.40214085578918457 0.488463997840881348 0 1
-2.41774201393127441 3.50214099884033203 0.488463997840881348 0 1
-2.41774201393127441 3.60214090347290039 0.488463997840881348 0 1
-2.41774201393127441 3.70214080810546875 0.488463997840881348 0 1
-2.41774201393127441 3.80214095115661621 0.488463997840881348 0 1
-2.41774201393127441 3.90214085578918457 0.488463997840881348 0 1
-2.41774201393127441 4.00214099884033203 0.488463997840881348 0 1
-2.41774201393127441 3.00214099884033203 0.588464021682739258 0 1
-2.41774201393127441 3.10214090347290039 0.588464021682739258 0 1
-2.41774201393127441 3.20214080810546875 0.588464021682739258 0 1
-2.41774201393127441 3.30214095115661621 0.588464021682739258 0 1
-2.41774201393127441 3.40214085578918457 0.588464021682739258 0 1
-2.41774201393127441 3.50214099884033203 0.588464021682739258 0 1
-2.41774201393127441 3.60214090347290039 0.588464021682739258 0 1
-2.41774201393127441 3.70214080810546875 0.588464021682739258 0 1
-2.41774201393127441 3.80214095115661621 0.588464021682739258 0 1
-2.41774201393127441 3.90214085578918457 0.588464021682739258 0 1
-2.41774201393127441 3.10214090347290039 0.688463985919952393 0 1
-2.41774201393127441 3.20214080810546875 0.688463985919952393 0 1
-2.41774201393127441 3.30214095115661621 0.688463985919952393 0 1
-2.41774201393127441 3.40214085578918457 0.688463985919952393 0 1
-2.41774201393127441 3.50214099884033203 0.688463985919952393 0 1
-2.41774201393127441 3.60214090347290039 0.688463985919952393 0 1
-2.41774201393127441 3.70214080810546875 0.688463985919952393 0 1
-2.41774201393127441 3.80214095115661621 0.688463985919952393 0 1
-2.41774201393127441 3.20214080810546875 0.788464009761810303 0 1
-2.41774201393127441 3.30214095115661621 0.788464009761810303 0 1
-2.41774201393127441 3.40214085578918457 0.788464009761810303 0 1
-2.41774201393127441 3.50214099884033203 0.788464009761810303 0 1
-2.41774201393127441 3.60214090347290039 0.788464009761810303 0 1
-2.41774201393127441 3.70214080810546875 0.788464009761810303 0 1
