ply
format ascii 1.0
element vertex 47
property float x
property float y
property float z
property float p1
property float p2
end_header
1.05506694316864014 3.18962287902832031 -0.606171011924743652 1 0
1.05506694316864014 3.28962302207946777 -0.606171011924743652 1 0
1.05506694316864014 3.38962292671203613 -0.606171011924743652 1 0
1.05506694316864014 3.48962283134460449 -0.606171011924743652 1 0
1.05506694316864014 3.58962297439575195 -0.606171011924743652 1 0
1.05506694316864014 3.68962287902832031 -0.606171011924743652 1 0
1.05506694316864014 3.78962302207946777 -0.606171011924743652 1 0
1.05506694316864014 3.88962292671203613 -0.606171011924743652 1 0
1.05506694316864014 3.98962283134460449 -0.606171011924743652 1 0
1.05506694316864014 3.18962287902832031 -0.506170988082885742 1 0
1.05506694316864014 3.28962302207946777 -0.506170988082885742 1 0
1.05506694316864014 3.38962292671203613 -0.506170988082885742 1 0
1.05506694316864014 3.48962283134460449 -0.506170988082885742 1 0
1.05506694316864014 3.58962297439575195 -0.506170988082885742 1 0
1.05506694316864014 3.68962287902832031 -0.506170988082885742 1 0
1.05506694316864014 3.78962302207946777 -0.506170988082885742 1 0
1.05506694316864014 3.88962292671203613 -0.506170988082885742 1 0
1.05506694316864014 3.98962283134460449 -0.506170988082885742 1 0
1.05506694316864014 3.18962287902832031 -0.40617099404335022 1 0
1.05506694316864014 3.28962302207946777 -0.40617099404335022 1 0
1.05506694316864014 3.38962292671203613 -0.40617099404335022 1 0
1.05506694316864014 3.48962283134460449 -0.40617099404335022 1 0
1.05506694316864014 3.58962297439575195 -0.40617099404335022 1 0
1.05506694316864014 3.68962287902832031 -0.40617099404335022 1 0
1.05506694316864014 3.78962302207946777 -0.40617099404335022 1 0
1.05506694316864014 3.88962292671203613 -0.40617099404335022 1 0
1.05506694316864014 3.98962283134460449 -0.40617099404335022 1 0
1.05506694316864014 3.18962287902832031 -0.306171000003814697 1 0
1.05506694316864014 3.28962302207946777 -0.306171000003814697 1 0
1.05506694316864014 3.38962292671203613 -0.306171000003814697 1 0
1.05506694316864014 3.48962283134460449 -0.306171000003814697 1 0
1.05506694316864014 3.58962297439575195 -0.306171000003814697 1 0
1.05506694316864014 3.68962287902832031 -0.306171000003814697 1 0
1.05506694316864014 3.78962302207946777 -0.306171000003814697 1 0
1.05506694316864014 3.88962292671203613 -0.306171000003814697 1 0
1.05506694316864014 3.98962283134460449 -0.306171000003814697 1 0
1.05506694316864014 3.18962287902832031 -0.206170991063117981 1 0
1.05506694316864014 3.28962302207946777 -0.206170991063117981 1 0
1.05506694316864014 3.38962292671203613 -0.206170991063117981 1 0
1.05506694316864014 3.48962283134460449 -0.206170991063117981 1 0
1.05506694316864014 3.58962297439575195 -0.206170991063117981 1 0
1.05506694316864014 3.68962287902832031 -0.206170991063117981 1 0
1.05506694316864014 3.78962302207946777 -0.206170991063117981 1 0
1.05506694316864014 3.88962292671203613 -0.206170991063117981 1 0
1.05506694316864014 3.98962283134460449 -0.206170991063117981 1 0
1.05506694316864014 3.18962287902832031 -0.106170989573001862 1 0
1.05506694316864014 3.18962287902832031 -0.00617098808288574219 1 0
