ply
format ascii 1.0
element vertex 24
property float x
property float y
property float z
property float p1
property float p2
end_header
0.754831969738006592 12.8826112747192383 12.665043830871582 0 1
0.854831993579864502 12.8826112747192383 12.665043830871582 0 1
0.954832017421722412 12.8826112747192383 12.665043830871582 0 1
0.654832005500793457 12.8826112747192383 12.7650432586669922 0 1
0.754831969738006592 12.8826112747192383 12.7650432586669922 0 1
0.854831993579864502 12.8826112747192383 12.7650432586669922 0 1
0.954832017421722412 12.8826112747192383 12.7650432586669922 0 1
1.05483198165893555 12.8826112747192383 12.7650432586669922 0 1
0.654832005500793457 12.8826112747192383 12.8650436401367188 0 1
0.754831969738006592 12.8826112747192383 12.8650436401367188 0 1
0.854831993579864502 12.8826112747192383 12.8650436401367188 0 1
0.954832017421722412 12.8826112747192383 12.8650436401367188 0 1
1.05483198165893555 12.8826112747192383 12.8650436401367188 0 1
1.15483200550079346 12.8826112747192383 12.8650436401367188 0 1
0.654832005500793457 12.8826112747192383 12.9650440216064453 0 1
0.754831969738006592 12.8826112747192383 12.9650440216064453 0 1
0.854831993579864502 12.8826112747192383 12.9650440216064453 0 1
0.954832017421722412 12.8826112747192383 12.9650440216064453 0 1
1.05483198165893555 12.8826112747192383 12.9650440216064453 0 1
0.754831969738006592 12.8826112747192383 13.0650434494018555 0 1
0.854831993579864502 12.8826112747192383 13.0650434494018555 0 1
0.954832017421722412 12.8826112747192383 13.0650434494018555 0 1
1.05483198165893555 12.8826112747192383 13.0650434494018555 0 1
0.854831993579864502 12.8826112747192383 13.165043830871582 0 1
