ply
format ascii 1.0
element vertex 40
property float x
property float y
property float z
property float p1
property float p2
end_header
-1.15496301651000977 12.8930168151855469 12.5837478637695312 1 0
-1.05496299266815186 12.8930168151855469 12.5837478637695312 1 0
-0.954963028430938721 12.8930168151855469 12.5837478637695312 1 0
-1.25496304035186768 12.8930168151855469 12.6837472915649414 1 0
-1.15496301651000977 12.8930168151855469 12.6837472915649414 1 0
-1.05496299266815186 12.8930168151855469 12.6837472915649414 1 0
-0.954963028430938721 12.8930168151855469 12.6837472915649414 1 0
-0.854963004589080811 12.8930168151855469 12.6837472915649414 1 0
-0.754963040351867676 12.8930168151855469 12.6837472915649414 1 0
-1.35496306419372559 12.8930168151855469 12.783747673034668 1 0
-1.25496304035186768 12.8930168151855469 12.783747673034668 1 0
-1.15496301651000977 12.8930168151855469 12.783747673034668 1 0
-1.05496299266815186 12.8930168151855469 12.783747673034668 1 0
-0.954963028430938721 12.8930168151855469 12.783747673034668 1 0
-0.854963004589080811 12.8930168151855469 12.783747673034668 1 0
-0.754963040351867676 12.8930168151855469 12.783747673034668 1 0
-1.35496306419372559 12.8930168151855469 12.8837480545043945 1 0
-1.25496304035186768 12.8930168151855469 12.8837480545043945 1 0
-1.15496301651000977 12.8930168151855469 12.8837480545043945 1 0
-1.05496299266815186 12.8930168151855469 12.8837480545043945 1 0
-0.954963028430938721 12.8930168151855469 12.8837480545043945 1 0
-0.854963004589080811 12.8930168151855469 12.8837480545043945 1 0
-0.754963040351867676 12.8930168151855469 12.8837480545043945 1 0
-1.35496306419372559 12.8930168151855469 12.9837474822998047 1 0
-1.25496304035186768 12.8930168151855469 12.9837474822998047 1 0
-1.15496301651000977 12.8930168151855469 12.9837474822998047 1 0
-1.05496299266815186 12.8930168151855469 12.9837474822998047 1 0
-0.954963028430938721 12.8930168151855469 12.9837474822998047 1 0
-0.854963004589080811 12.8930168151855469 12.9837474822998047 1 0
-0.754963040351867676 12.8930168151855469 12.9837474822998047 1 0
-1.25496304035186768 12.8930168151855469 13.0837478637695312 1 0
-1.15496301651000977 12.8930168151855469 13.0837478637695312 1 0
-1.05496299266815186 12.8930168151855469 13.0837478637695312 1 0
-0.954963028430938721 12.8930168151855469 13.0837478637695312 1 0
-0.854963004589080811 12.8930168151855469 13.0837478637695312 1 0
-0.754963040351867676 12.8930168151855469 13.0837478637695312 1 0
-1.15496301651000977 12.8930168151855469 13.1837472915649414 1 0
-1.05496299266815186 12.8930168151855469 13.1837472915649414 1 0
-0.954963028430938721 12.8930168151855469 13.1837472915649414 1 0
-0.854963004589080811 12.8930168151855469 13.1837472915649414 1 0
