ply
format ascii 1.0
element vertex 21
property float x
property float y
property float z
end_header
0.420000016689300537 3.63605093955993652 -0.719999969005584717
0.519999980926513672 3.63605093955993652 -0.719999969005584717
0.620000004768371582 3.63605093955993652 -0.719999969005584717
0.320000022649765015 3.63605093955993652 -0.620000004768371582
0.420000016689300537 3.63605093955993652 -0.620000004768371582
0.519999980926513672 3.63605093955993652 -0.620000004768371582
0.620000004768371582 3.63605093955993652 -0.620000004768371582
0.720000028610229492 3.63605093955993652 -0.620000004768371582
0.320000022649765015 3.63605093955993652 -0.519999980926513672
0.420000016689300537 3.63605093955993652 -0.519999980926513672
0.519999980926513672 3.63605093955993652 -0.519999980926513672
0.620000004768371582 3.63605093955993652 -0.519999980926513672
0.720000028610229492 3.63605093955993652 -0.519999980926513672
0.320000022649765015 3.63605093955993652 -0.419999986886978149
0.420000016689300537 3.63605093955993652 -0.419999986886978149
0.519999980926513672 3.63605093955993652 -0.419999986886978149
0.620000004768371582 3.63605093955993652 -0.419999986886978149
0.720000028610229492 3.63605093955993652 -0.419999986886978149
0.420000016689300537 3.63605093955993652 -0.319999992847442627
0.519999980926513672 3.63605093955993652 -0.319999992847442627
0.620000004768371582 3.63605093955993652 -0.319999992847442627
