ply
format ascii 1.0
element vertex 21
property float x
property float y
property float z
end_header
-0.620000004768371582 3.6360468864440918 0.320000022649765015
-0.519999980926513672 3.6360468864440918 0.320000022649765015
-0.419999986886978149 3.6360468864440918 0.320000022649765015
-0.719999969005584717 3.6360468864440918 0.420000016689300537
-0.620000004768371582 3.6360468864440918 0.420000016689300537
-0.519999980926513672 3.6360468864440918 0.420000016689300537
-0.419999986886978149 3.6360468864440918 0.420000016689300537
-0.319999992847442627 3.6360468864440918 0.420000016689300537
-0.719999969005584717 3.6360468864440918 0.519999980926513672
-0.620000004768371582 3.6360468864440918 0.519999980926513672
-0.519999980926513672 3.6360468864440918 0.519999980926513672
-0.419999986886978149 3.6360468864440918 0.519999980926513672
-0.319999992847442627 3.6360468864440918 0.519999980926513672
-0.719999969005584717 3.6360468864440918 0.620000004768371582
-0.620000004768371582 3.6360468864440918 0.620000004768371582
-0.519999980926513672 3.6360468864440918 0.620000004768371582
-0.419999986886978149 3.6360468864440918 0.620000004768371582
-0.319999992847442627 3.6360468864440918 0.620000004768371582
-0.620000004768371582 3.6360468864440918 0.720000028610229492
-0.519999980926513672 3.6360468864440918 0.720000028610229492
-0.419999986886978149 3.6360468864440918 0.720000028610229492
