ply
format ascii 1.0
element vertex 21
property float x
property float y
property float z
end_header
-0.620000004768371582 3.6360468864440918 -0.719999969005584717
-0.519999980926513672 3.6360468864440918 -0.719999969005584717
-0.419999986886978149 3.6360468864440918 -0.719999969005584717
-0.719999969005584717 3.6360468864440918 -0.620000004768371582
-0.620000004768371582 3.6360468864440918 -0.620000004768371582
-0.519999980926513672 3.6360468864440918 -0.620000004768371582
-0.419999986886978149 3.6360468864440918 -0.620000004768371582
-0.319999992847442627 3.6360468864440918 -0.620000004768371582
-0.719999969005584717 3.6360468864440918 -0.519999980926513672
-0.620000004768371582 3.6360468864440918 -0.519999980926513672
-0.519999980926513672 3.6360468864440918 -0.519999980926513672
-0.419999986886978149 3.6360468864440918 -0.519999980926513672
-0.319999992847442627 3.6360468864440918 -0.519999980926513672
-0.719999969005584717 3.6360468864440918 -0.419999986886978149
-0.620000004768371582 3.6360468864440918 -0.419999986886978149
-0.519999980926513672 3.6360468864440918 -0.419999986886978149
-0.419999986886978149 3.6360468864440918 -0.419999986886978149
-0.319999992847442627 3.6360468864440918 -0.419999986886978149
-0.620000004768371582 3.6360468864440918 -0.319999992847442627
-0.519999980926513672 3.6360468864440918 -0.319999992847442627
-0.419999986886978149 3.6360468864440918 -0.319999992847442627
