# Blender 3.6.1
# www.blender.org
mtllib Box_010_v4.mtl
o Box_010_obj
v -1.000000 0.000000 1.000000
v 0.300000 0.000000 0.120000
v -0.700000 0.000000 0.520000
v -0.700000 -0.000000 -0.880000
v 0.335116 0.000000 0.123459
v 0.700000 -0.000000 -0.880000
v 0.368883 0.000000 0.133702
v -0.664884 0.000000 0.523459
v -1.000000 4.000000 1.000000
v 0.400003 0.000000 0.150335
v -0.664884 -0.000000 -0.876541
v -0.631117 0.000000 0.533702
v -1.000000 -0.000000 -1.000000
v 0.427279 0.000000 0.172721
v 0.735116 -0.000000 -0.876541
v -0.599997 0.000000 0.550335
v 0.449665 0.000000 0.199997
v -0.631117 -0.000000 -0.866298
v -1.000000 4.000000 -1.000000
v 0.466298 0.000000 0.231117
v -0.572721 0.000000 0.572721
v 1.000000 0.000000 1.000000
v 0.476541 0.000000 0.264884
v -0.599997 -0.000000 -0.849665
v 0.480000 0.000000 0.300000
v -0.550335 0.000000 0.599997
v 0.768883 -0.000000 -0.866298
v 1.000000 4.000000 1.000000
v 0.476541 0.000000 0.335116
v -0.533702 0.000000 0.631117
v -0.572721 -0.000000 -0.827279
v 0.466298 0.000000 0.368883
v 1.000000 -0.000000 -1.000000
v 0.449665 0.000000 0.400003
v -0.523459 0.000000 0.664884
v 0.800003 -0.000000 -0.849665
v 0.427279 0.000000 0.427279
v -0.550335 -0.000000 -0.800003
v -0.520000 0.000000 0.700000
v 1.000000 4.000000 -1.000000
v 0.400003 0.000000 0.449665
v -0.523459 0.000000 0.735116
v -0.533702 -0.000000 -0.768883
v 0.368883 0.000000 0.466298
v 0.000000 0.000000 0.000000
v 0.335116 0.000000 0.476541
v 0.827279 -0.000000 -0.827279
v -0.533702 0.000000 0.768883
v 0.849665 -0.000000 -0.800003
v 0.300000 0.000000 0.480000
v -0.523459 -0.000000 -0.735116
v 0.264884 0.000000 0.476541
v -0.550335 0.000000 0.800003
v 0.866298 -0.000000 -0.768883
v 0.876541 -0.000000 -0.735116
v 0.231117 0.000000 0.466298
v -0.572721 0.000000 0.827279
v -0.520000 -0.000000 -0.700000
v 0.199997 0.000000 0.449664
v 0.880000 -0.000000 -0.700000
v -0.599997 0.000000 0.849665
v 0.172721 0.000000 0.427279
v 0.876541 -0.000000 -0.664884
v -0.631117 0.000000 0.866298
v 0.150335 0.000000 0.400003
v -0.523459 -0.000000 -0.664884
v 0.866298 -0.000000 -0.631117
v 0.133702 0.000000 0.368883
v -0.664884 0.000000 0.876541
v -0.533702 -0.000000 -0.631117
v 0.123459 0.000000 0.335116
v 0.849665 -0.000000 -0.599997
v -0.700000 0.000000 0.880000
v 0.120000 0.000000 0.300000
v 0.827279 -0.000000 -0.572721
v 0.123459 0.000000 0.264884
v 0.800003 -0.000000 -0.550335
v -0.735116 0.000000 0.876541
v 0.133702 0.000000 0.231117
v -0.550335 -0.000000 -0.599997
v 0.768883 -0.000000 -0.533702
v 0.150336 0.000000 0.199997
v -0.572721 -0.000000 -0.572721
v -0.768883 0.000000 0.866298
v 0.735116 -0.000000 -0.523459
v 0.172721 0.000000 0.172721
v 0.700000 -0.000000 -0.520000
v 0.199998 0.000000 0.150335
v -0.800003 0.000000 0.849664
v -0.599997 -0.000000 -0.550335
v 0.231117 0.000000 0.133702
v 0.664884 -0.000000 -0.523459
v -0.827279 0.000000 0.827279
v 0.264884 0.000000 0.123459
v 0.631117 -0.000000 -0.533702
v 0.599997 -0.000000 -0.550336
v -0.849665 0.000000 0.800003
v -0.631117 -0.000000 -0.533702
v 0.572721 -0.000000 -0.572721
v -0.866298 0.000000 0.768883
v 0.550335 -0.000000 -0.599997
v -0.664884 -0.000000 -0.523459
v -0.876541 0.000000 0.735116
v 0.533702 -0.000000 -0.631117
v -0.700000 -0.000000 -0.520000
v -0.880000 0.000000 0.700000
v 0.523459 -0.000000 -0.664884
v -0.876541 0.000000 0.664883
v 0.520000 -0.000000 -0.700000
v 0.523459 -0.000000 -0.735116
v -0.735116 -0.000000 -0.523459
v -0.866298 0.000000 0.631117
v 0.533702 -0.000000 -0.768883
v -0.768883 -0.000000 -0.533702
v -0.849664 0.000000 0.599997
v 0.550336 -0.000000 -0.800003
v -0.827279 0.000000 0.572721
v 0.572721 -0.000000 -0.827279
v -0.800003 -0.000000 -0.550336
v -0.800002 0.000000 0.550335
v 0.599998 -0.000000 -0.849665
v 0.631117 -0.000000 -0.866298
v -0.827279 -0.000000 -0.572721
v -0.768883 0.000000 0.533702
v 0.664884 -0.000000 -0.876541
v -0.735116 0.000000 0.523459
v 0.572721 -0.000000 -0.572721
v -0.849665 -0.000000 -0.599997
v -0.866298 -0.000000 -0.631117
v -0.876541 -0.000000 -0.664884
v -0.880000 -0.000000 -0.700000
v -0.876541 -0.000000 -0.735116
v -0.866298 -0.000000 -0.768883
v -0.849664 -0.000000 -0.800003
v -0.827279 -0.000000 -0.827279
v -0.800002 -0.000000 -0.849665
v -0.768883 -0.000000 -0.866298
v -0.735116 -0.000000 -0.876541
v -0.827279 0.000000 0.827279
v 0.700000 -0.000000 -0.880000
v 0.700000 1.200000 -0.880000
v 0.735116 -0.000000 -0.876541
v 0.735116 1.200000 -0.876541
v 0.768883 -0.000000 -0.866298
v 0.768883 1.200000 -0.866298
v 0.800003 -0.000000 -0.849665
v 0.800003 1.200000 -0.849665
v 0.827279 -0.000000 -0.827279
v 0.827279 1.200000 -0.827279
v 0.849665 -0.000000 -0.800003
v 0.849665 1.200000 -0.800003
v 0.866298 -0.000000 -0.768883
v 0.866298 1.200000 -0.768883
v 0.876541 -0.000000 -0.735116
v 0.876541 1.200000 -0.735116
v 0.880000 0.000000 -0.700000
v 0.880000 1.200000 -0.700000
v 0.876541 0.000000 -0.664884
v 0.876541 1.200000 -0.664884
v 0.866298 0.000000 -0.631117
v 0.866298 1.200000 -0.631117
v 0.849665 0.000000 -0.599997
v 0.849665 1.200000 -0.599998
v 0.827279 0.000000 -0.572721
v 0.827279 1.200000 -0.572721
v 0.800003 0.000000 -0.550335
v 0.800003 1.200000 -0.550336
v 0.768883 0.000000 -0.533702
v 0.768883 1.200000 -0.533702
v 0.735116 0.000000 -0.523459
v 0.735116 1.200000 -0.523459
v 0.700000 0.000000 -0.520000
v 0.700000 1.200000 -0.520000
v 0.664884 0.000000 -0.523459
v 0.664884 1.200000 -0.523459
v 0.631117 0.000000 -0.533702
v 0.631117 1.200000 -0.533702
v 0.599997 0.000000 -0.550336
v 0.599997 1.200000 -0.550336
v 0.572721 0.000000 -0.572721
v 0.572721 1.200000 -0.572721
v 0.550335 0.000000 -0.599997
v 0.550335 1.200000 -0.599998
v 0.533702 0.000000 -0.631117
v 0.533702 1.200000 -0.631117
v 0.523459 0.000000 -0.664884
v 0.523459 1.200000 -0.664884
v 0.520000 -0.000000 -0.700000
v 0.520000 1.200000 -0.700000
v 0.523459 -0.000000 -0.735116
v 0.523459 1.200000 -0.735117
v 0.533702 -0.000000 -0.768883
v 0.533702 1.200000 -0.768883
v 0.550336 -0.000000 -0.800003
v 0.550336 1.200000 -0.800003
v 0.572721 -0.000000 -0.827279
v 0.572721 1.200000 -0.827279
v 0.599998 -0.000000 -0.849665
v 0.599998 1.200000 -0.849665
v 0.631117 -0.000000 -0.866298
v 0.631117 1.200000 -0.866299
v 0.664884 -0.000000 -0.876541
v 0.664884 1.200000 -0.876542
v 0.300000 -0.000000 0.120000
v 0.300000 2.000000 0.120000
v 0.335116 -0.000000 0.123459
v 0.335116 2.000000 0.123459
v 0.368883 -0.000000 0.133702
v 0.368883 2.000000 0.133702
v 0.400003 -0.000000 0.150335
v 0.400003 2.000000 0.150335
v 0.427279 -0.000000 0.172721
v 0.427279 2.000000 0.172721
v 0.449665 -0.000000 0.199997
v 0.449665 2.000000 0.199997
v 0.466298 -0.000000 0.231117
v 0.466298 2.000000 0.231117
v 0.476541 -0.000000 0.264884
v 0.476541 2.000000 0.264884
v 0.480000 0.000000 0.300000
v 0.480000 2.000000 0.300000
v 0.476541 0.000000 0.335116
v 0.476541 2.000000 0.335116
v 0.466298 0.000000 0.368883
v 0.466298 2.000000 0.368883
v 0.449665 0.000000 0.400003
v 0.449665 2.000000 0.400002
v 0.427279 0.000000 0.427279
v 0.427279 2.000000 0.427279
v 0.400003 0.000000 0.449665
v 0.400003 2.000000 0.449664
v 0.368883 0.000000 0.466298
v 0.368883 2.000000 0.466298
v 0.335116 0.000000 0.476541
v 0.335116 2.000000 0.476541
v 0.300000 0.000000 0.480000
v 0.300000 2.000000 0.480000
v 0.264884 0.000000 0.476541
v 0.264884 2.000000 0.476541
v 0.231117 0.000000 0.466298
v 0.231117 2.000000 0.466298
v 0.199997 0.000000 0.449664
v 0.199997 2.000000 0.449664
v 0.172721 0.000000 0.427279
v 0.172721 2.000000 0.427279
v 0.150335 0.000000 0.400003
v 0.150335 2.000000 0.400002
v 0.133702 0.000000 0.368883
v 0.133702 2.000000 0.368883
v 0.123459 0.000000 0.335116
v 0.123459 2.000000 0.335116
v 0.120000 -0.000000 0.300000
v 0.120000 2.000000 0.300000
v 0.123459 -0.000000 0.264884
v 0.123459 2.000000 0.264883
v 0.133702 -0.000000 0.231117
v 0.133702 2.000000 0.231117
v 0.150336 -0.000000 0.199997
v 0.150336 2.000000 0.199997
v 0.172721 -0.000000 0.172721
v 0.172721 2.000000 0.172721
v 0.199998 -0.000000 0.150335
v 0.199998 2.000000 0.150335
v 0.231117 -0.000000 0.133702
v 0.231117 2.000000 0.133701
v 0.264884 -0.000000 0.123459
v 0.264884 2.000000 0.123458
v -0.700000 -0.000000 0.520000
v -0.700000 3.500000 0.520000
v -0.664884 -0.000000 0.523459
v -0.664884 3.500000 0.523458
v -0.631117 -0.000000 0.533702
v -0.631117 3.500000 0.533701
v -0.599997 -0.000000 0.550335
v -0.599997 3.500000 0.550335
v -0.572721 -0.000000 0.572721
v -0.572721 3.500000 0.572721
v -0.550335 -0.000000 0.599997
v -0.550335 3.500000 0.599997
v -0.533702 -0.000000 0.631117
v -0.533702 3.500000 0.631117
v -0.523459 -0.000000 0.664884
v -0.523459 3.500000 0.664884
v -0.520000 0.000000 0.700000
v -0.520000 3.500000 0.700000
v -0.523459 0.000000 0.735116
v -0.523459 3.500000 0.735116
v -0.533702 0.000000 0.768883
v -0.533702 3.500000 0.768883
v -0.550335 0.000000 0.800003
v -0.550335 3.500000 0.800002
v -0.572721 0.000000 0.827279
v -0.572721 3.500000 0.827279
v -0.599997 0.000000 0.849665
v -0.599997 3.500000 0.849664
v -0.631117 0.000000 0.866298
v -0.631117 3.500000 0.866298
v -0.664884 0.000000 0.876541
v -0.664884 3.500000 0.876541
v -0.700000 0.000000 0.880000
v -0.700000 3.500000 0.880000
v -0.735116 0.000000 0.876541
v -0.735116 3.500000 0.876541
v -0.768883 0.000000 0.866298
v -0.768883 3.500000 0.866298
v -0.800003 0.000000 0.849664
v -0.800003 3.500000 0.849664
v -0.827279 0.000000 0.827279
v -0.827279 3.500000 0.827279
v -0.849665 0.000000 0.800003
v -0.849665 3.500000 0.800002
v -0.866298 0.000000 0.768883
v -0.866298 3.500000 0.768883
v -0.876541 0.000000 0.735116
v -0.876541 3.500000 0.735116
v -0.880000 -0.000000 0.700000
v -0.880000 3.500000 0.700000
v -0.876541 -0.000000 0.664883
v -0.876541 3.500000 0.664883
v -0.866298 -0.000000 0.631117
v -0.866298 3.500000 0.631117
v -0.849664 -0.000000 0.599997
v -0.849664 3.500000 0.599997
v -0.827279 -0.000000 0.572721
v -0.827279 3.500000 0.572720
v -0.800002 -0.000000 0.550335
v -0.800002 3.500000 0.550335
v -0.768883 -0.000000 0.533702
v -0.768883 3.500000 0.533701
v -0.735116 -0.000000 0.523459
v -0.735116 3.500000 0.523458
v -0.700000 -0.000000 -0.880000
v -0.700000 3.500000 -0.880000
v -0.664884 -0.000000 -0.876541
v -0.664884 3.500000 -0.876541
v -0.631117 -0.000000 -0.866298
v -0.631117 3.500000 -0.866298
v -0.599997 -0.000000 -0.849665
v -0.599997 3.500000 -0.849665
v -0.572721 -0.000000 -0.827279
v -0.572721 3.500000 -0.827279
v -0.550335 -0.000000 -0.800003
v -0.550335 3.500000 -0.800003
v -0.533702 -0.000000 -0.768883
v -0.533702 3.500000 -0.768883
v -0.523459 -0.000000 -0.735116
v -0.523459 3.500000 -0.735116
v -0.520000 0.000000 -0.700000
v -0.520000 3.500000 -0.700000
v -0.523459 0.000000 -0.664884
v -0.523459 3.500000 -0.664884
v -0.533702 0.000000 -0.631117
v -0.533702 3.500000 -0.631117
v -0.550335 0.000000 -0.599997
v -0.550335 3.500000 -0.599998
v -0.572721 0.000000 -0.572721
v -0.572721 3.500000 -0.572721
v -0.599997 0.000000 -0.550335
v -0.599997 3.500000 -0.550336
v -0.631117 0.000000 -0.533702
v -0.631117 3.500000 -0.533702
v -0.664884 -0.000000 -0.523459
v -0.664884 3.500000 -0.523459
v -0.700000 0.000000 -0.520000
v -0.700000 3.500000 -0.520000
v -0.735116 0.000000 -0.523459
v -0.735116 3.500000 -0.523459
v -0.768883 0.000000 -0.533702
v -0.768883 3.500000 -0.533702
v -0.800003 0.000000 -0.550336
v -0.800003 3.500000 -0.550336
v -0.827279 0.000000 -0.572721
v -0.827279 3.500000 -0.572721
v -0.849665 0.000000 -0.599997
v -0.849665 3.500000 -0.599998
v -0.866298 0.000000 -0.631117
v -0.866298 3.500000 -0.631117
v -0.876541 0.000000 -0.664884
v -0.876541 3.500000 -0.664884
v -0.880000 -0.000000 -0.700000
v -0.880000 3.500000 -0.700000
v -0.876541 -0.000000 -0.735116
v -0.876541 3.500000 -0.735117
v -0.866298 -0.000000 -0.768883
v -0.866298 3.500000 -0.768883
v -0.849664 -0.000000 -0.800003
v -0.849664 3.500000 -0.800003
v -0.827279 -0.000000 -0.827279
v -0.827279 3.500000 -0.827280
v -0.800002 -0.000000 -0.849665
v -0.800002 3.500000 -0.849665
v -0.768883 -0.000000 -0.866298
v -0.768883 3.500000 -0.866299
v -0.735116 -0.000000 -0.876541
v -0.735116 3.500000 -0.876542
vn -1.0000 -0.0000 -0.0000
vn -0.0000 -0.0000 -1.0000
vn 1.0000 -0.0000 -0.0000
vn -0.0000 -0.0000 1.0000
vn -0.0000 -1.0000 -0.0000
vn -0.0000 1.0000 -0.0000
vn 0.0980 -0.0000 -0.9952
vn 0.2903 -0.0000 -0.9569
vn 0.4714 -0.0000 -0.8819
vn 0.6344 -0.0000 -0.7730
vn 0.7730 -0.0000 -0.6344
vn 0.8819 -0.0000 -0.4714
vn 0.9569 -0.0000 -0.2903
vn 0.9952 -0.0000 -0.0980
vn 0.9952 -0.0000 0.0980
vn 0.9569 -0.0000 0.2903
vn 0.8819 -0.0000 0.4714
vn 0.7730 -0.0000 0.6344
vn 0.6344 -0.0000 0.7730
vn 0.4714 -0.0000 0.8819
vn 0.2903 -0.0000 0.9569
vn 0.0980 -0.0000 0.9952
vn -0.0980 -0.0000 0.9952
vn -0.2903 -0.0000 0.9569
vn -0.4714 -0.0000 0.8819
vn -0.6344 -0.0000 0.7730
vn -0.7730 -0.0000 0.6344
vn -0.8819 -0.0000 0.4714
vn -0.9569 -0.0000 0.2903
vn -0.9952 -0.0000 0.0980
vn -0.9952 -0.0000 -0.0980
vn -0.9569 -0.0000 -0.2903
vn -0.8819 -0.0000 -0.4714
vn -0.7730 -0.0000 -0.6344
vn -0.6344 -0.0000 -0.7730
vn -0.4714 -0.0000 -0.8819
vn -0.2903 -0.0000 -0.9569
vn -0.0980 -0.0000 -0.9952
s 0
usemtl None
f 9//1 13//1 1//1
f 19//2 33//2 13//2
f 40//3 22//3 33//3
f 28//4 1//4 22//4
f 135//5 13//5 33//5 47//5 36//5 27//5 15//5 6//5 125//5 122//5 121//5 118//5 116//5 113//5 110//5 109//5 107//5 104//5 101//5 99//5 127//5 45//5 83//5 80//5 70//5 66//5 58//5 51//5 43//5 38//5 31//5 24//5 18//5 11//5 4//5 138//5 137//5 136//5
f 93//5 139//5 1//5 13//5 135//5 134//5 133//5 132//5 131//5 130//5 129//5 128//5 123//5 119//5 114//5 111//5 105//5 102//5 98//5 90//5 83//5 45//5 21//5 16//5 12//5 8//5 3//5 126//5 124//5 120//5 117//5 115//5 112//5 108//5 106//5 103//5 100//5 97//5
f 19//6 28//6 40//6
f 9//1 19//1 13//1
f 19//2 40//2 33//2
f 40//3 28//3 22//3
f 28//4 9//4 1//4
f 26//5 21//5 45//5 86//5 82//5 79//5 76//5 74//5 71//5 68//5
f 49//5 47//5 33//5 22//5 1//5 139//5 89//5 84//5 78//5 73//5 69//5 64//5 61//5 57//5 53//5 48//5 42//5 39//5 35//5 30//5 26//5 68//5 65//5 62//5 59//5 56//5 52//5 50//5 46//5 44//5 41//5 37//5 34//5 32//5 29//5 25//5 23//5 20//5 17//5 14//5 10//5 7//5 5//5 2//5 94//5 91//5 88//5 86//5 45//5 127//5 96//5 95//5 92//5 87//5 85//5 81//5 77//5 75//5 72//5 67//5 63//5 60//5 55//5 54//5
f 19//6 9//6 28//6
usemtl None.007
f 141//7 142//7 140//7
f 143//8 144//8 142//8
f 145//9 146//9 144//9
f 147//10 148//10 146//10
f 149//11 150//11 148//11
f 151//12 152//12 150//12
f 153//13 154//13 152//13
f 155//14 156//14 154//14
f 157//15 158//15 156//15
f 159//16 160//16 158//16
f 161//17 162//17 160//17
f 163//18 164//18 162//18
f 165//19 166//19 164//19
f 167//20 168//20 166//20
f 169//21 170//21 168//21
f 171//22 172//22 170//22
f 173//23 174//23 172//23
f 175//24 176//24 174//24
f 177//25 178//25 176//25
f 179//26 180//26 178//26
f 181//27 182//27 180//27
f 183//28 184//28 182//28
f 185//29 186//29 184//29
f 187//30 188//30 186//30
f 189//31 190//31 188//31
f 191//32 192//32 190//32
f 193//33 194//33 192//33
f 195//34 196//34 194//34
f 197//35 198//35 196//35
f 199//36 200//36 198//36
f 193//6 177//6 161//6
f 201//37 202//37 200//37
f 203//38 140//38 202//38
f 141//7 143//7 142//7
f 143//8 145//8 144//8
f 145//9 147//9 146//9
f 147//10 149//10 148//10
f 149//11 151//11 150//11
f 151//12 153//12 152//12
f 153//13 155//13 154//13
f 155//14 157//14 156//14
f 157//15 159//15 158//15
f 159//16 161//16 160//16
f 161//17 163//17 162//17
f 163//18 165//18 164//18
f 165//19 167//19 166//19
f 167//20 169//20 168//20
f 169//21 171//21 170//21
f 171//22 173//22 172//22
f 173//23 175//23 174//23
f 175//24 177//24 176//24
f 177//25 179//25 178//25
f 179//26 181//26 180//26
f 181//27 183//27 182//27
f 183//28 185//28 184//28
f 185//29 187//29 186//29
f 187//30 189//30 188//30
f 189//31 191//31 190//31
f 191//32 193//32 192//32
f 193//33 195//33 194//33
f 195//34 197//34 196//34
f 197//35 199//35 198//35
f 199//36 201//36 200//36
f 145//6 143//6 141//6
f 141//6 203//6 145//6
f 203//6 201//6 145//6
f 201//6 199//6 197//6
f 197//6 195//6 193//6
f 193//6 191//6 189//6
f 189//6 187//6 193//6
f 187//6 185//6 193//6
f 185//6 183//6 177//6
f 183//6 181//6 177//6
f 181//6 179//6 177//6
f 177//6 175//6 173//6
f 173//6 171//6 169//6
f 169//6 167//6 165//6
f 165//6 163//6 161//6
f 161//6 159//6 157//6
f 157//6 155//6 161//6
f 155//6 153//6 161//6
f 153//6 151//6 149//6
f 149//6 147//6 145//6
f 201//6 197//6 145//6
f 197//6 193//6 145//6
f 177//6 173//6 161//6
f 173//6 169//6 161//6
f 169//6 165//6 161//6
f 153//6 149//6 161//6
f 149//6 145//6 161//6
f 193//6 185//6 177//6
f 145//6 193//6 161//6
f 201//37 203//37 202//37
f 203//38 141//38 140//38
usemtl None.008
f 205//7 206//7 204//7
f 207//8 208//8 206//8
f 209//9 210//9 208//9
f 211//10 212//10 210//10
f 213//11 214//11 212//11
f 215//12 216//12 214//12
f 217//13 218//13 216//13
f 219//14 220//14 218//14
f 221//15 222//15 220//15
f 223//16 224//16 222//16
f 225//17 226//17 224//17
f 227//18 228//18 226//18
f 229//19 230//19 228//19
f 231//20 232//20 230//20
f 233//21 234//21 232//21
f 235//22 236//22 234//22
f 237//23 238//23 236//23
f 239//24 240//24 238//24
f 241//25 242//25 240//25
f 243//26 244//26 242//26
f 245//27 246//27 244//27
f 247//28 248//28 246//28
f 249//29 250//29 248//29
f 251//30 252//30 250//30
f 253//31 254//31 252//31
f 255//32 256//32 254//32
f 257//33 258//33 256//33
f 259//34 260//34 258//34
f 261//35 262//35 260//35
f 263//36 264//36 262//36
f 257//6 241//6 225//6
f 265//37 266//37 264//37
f 267//38 204//38 266//38
f 205//7 207//7 206//7
f 207//8 209//8 208//8
f 209//9 211//9 210//9
f 211//10 213//10 212//10
f 213//11 215//11 214//11
f 215//12 217//12 216//12
f 217//13 219//13 218//13
f 219//14 221//14 220//14
f 221//15 223//15 222//15
f 223//16 225//16 224//16
f 225//17 227//17 226//17
f 227//18 229//18 228//18
f 229//19 231//19 230//19
f 231//20 233//20 232//20
f 233//21 235//21 234//21
f 235//22 237//22 236//22
f 237//23 239//23 238//23
f 239//24 241//24 240//24
f 241//25 243//25 242//25
f 243//26 245//26 244//26
f 245//27 247//27 246//27
f 247//28 249//28 248//28
f 249//29 251//29 250//29
f 251//30 253//30 252//30
f 253//31 255//31 254//31
f 255//32 257//32 256//32
f 257//33 259//33 258//33
f 259//34 261//34 260//34
f 261//35 263//35 262//35
f 263//36 265//36 264//36
f 209//6 207//6 205//6
f 205//6 267//6 209//6
f 267//6 265//6 209//6
f 265//6 263//6 261//6
f 261//6 259//6 257//6
f 257//6 255//6 253//6
f 253//6 251//6 257//6
f 251//6 249//6 257//6
f 249//6 247//6 241//6
f 247//6 245//6 241//6
f 245//6 243//6 241//6
f 241//6 239//6 237//6
f 237//6 235//6 233//6
f 233//6 231//6 229//6
f 229//6 227//6 225//6
f 225//6 223//6 221//6
f 221//6 219//6 225//6
f 219//6 217//6 225//6
f 217//6 215//6 213//6
f 213//6 211//6 209//6
f 265//6 261//6 209//6
f 261//6 257//6 209//6
f 241//6 237//6 225//6
f 237//6 233//6 225//6
f 233//6 229//6 225//6
f 217//6 213//6 225//6
f 213//6 209//6 225//6
f 257//6 249//6 241//6
f 209//6 257//6 225//6
f 265//37 267//37 266//37
f 267//38 205//38 204//38
usemtl None.009
f 269//7 270//7 268//7
f 271//8 272//8 270//8
f 273//9 274//9 272//9
f 275//10 276//10 274//10
f 277//11 278//11 276//11
f 279//12 280//12 278//12
f 281//13 282//13 280//13
f 283//14 284//14 282//14
f 285//15 286//15 284//15
f 287//16 288//16 286//16
f 289//17 290//17 288//17
f 291//18 292//18 290//18
f 293//19 294//19 292//19
f 295//20 296//20 294//20
f 297//21 298//21 296//21
f 299//22 300//22 298//22
f 301//23 302//23 300//23
f 303//24 304//24 302//24
f 305//25 306//25 304//25
f 307//26 308//26 306//26
f 309//27 310//27 308//27
f 311//28 312//28 310//28
f 313//29 314//29 312//29
f 315//30 316//30 314//30
f 317//31 318//31 316//31
f 319//32 320//32 318//32
f 321//33 322//33 320//33
f 323//34 324//34 322//34
f 325//35 326//35 324//35
f 327//36 328//36 326//36
f 321//6 305//6 289//6
f 329//37 330//37 328//37
f 331//38 268//38 330//38
f 269//7 271//7 270//7
f 271//8 273//8 272//8
f 273//9 275//9 274//9
f 275//10 277//10 276//10
f 277//11 279//11 278//11
f 279//12 281//12 280//12
f 281//13 283//13 282//13
f 283//14 285//14 284//14
f 285//15 287//15 286//15
f 287//16 289//16 288//16
f 289//17 291//17 290//17
f 291//18 293//18 292//18
f 293//19 295//19 294//19
f 295//20 297//20 296//20
f 297//21 299//21 298//21
f 299//22 301//22 300//22
f 301//23 303//23 302//23
f 303//24 305//24 304//24
f 305//25 307//25 306//25
f 307//26 309//26 308//26
f 309//27 311//27 310//27
f 311//28 313//28 312//28
f 313//29 315//29 314//29
f 315//30 317//30 316//30
f 317//31 319//31 318//31
f 319//32 321//32 320//32
f 321//33 323//33 322//33
f 323//34 325//34 324//34
f 325//35 327//35 326//35
f 327//36 329//36 328//36
f 273//6 271//6 269//6
f 269//6 331//6 273//6
f 331//6 329//6 273//6
f 329//6 327//6 325//6
f 325//6 323//6 321//6
f 321//6 319//6 317//6
f 317//6 315//6 321//6
f 315//6 313//6 321//6
f 313//6 311//6 305//6
f 311//6 309//6 305//6
f 309//6 307//6 305//6
f 305//6 303//6 301//6
f 301//6 299//6 297//6
f 297//6 295//6 293//6
f 293//6 291//6 289//6
f 289//6 287//6 285//6
f 285//6 283//6 289//6
f 283//6 281//6 289//6
f 281//6 279//6 277//6
f 277//6 275//6 273//6
f 329//6 325//6 273//6
f 325//6 321//6 273//6
f 305//6 301//6 289//6
f 301//6 297//6 289//6
f 297//6 293//6 289//6
f 281//6 277//6 289//6
f 277//6 273//6 289//6
f 321//6 313//6 305//6
f 273//6 321//6 289//6
f 329//37 331//37 330//37
f 331//38 269//38 268//38
usemtl None.010
f 333//7 334//7 332//7
f 335//8 336//8 334//8
f 337//9 338//9 336//9
f 339//10 340//10 338//10
f 341//11 342//11 340//11
f 343//12 344//12 342//12
f 345//13 346//13 344//13
f 347//14 348//14 346//14
f 349//15 350//15 348//15
f 351//16 352//16 350//16
f 353//17 354//17 352//17
f 355//18 356//18 354//18
f 357//19 358//19 356//19
f 359//20 360//20 358//20
f 361//21 362//21 360//21
f 363//22 364//22 362//22
f 365//23 366//23 364//23
f 367//24 368//24 366//24
f 369//25 370//25 368//25
f 371//26 372//26 370//26
f 373//27 374//27 372//27
f 375//28 376//28 374//28
f 377//29 378//29 376//29
f 379//30 380//30 378//30
f 381//31 382//31 380//31
f 383//32 384//32 382//32
f 385//33 386//33 384//33
f 387//34 388//34 386//34
f 389//35 390//35 388//35
f 391//36 392//36 390//36
f 385//6 369//6 353//6
f 393//37 394//37 392//37
f 395//38 332//38 394//38
f 333//7 335//7 334//7
f 335//8 337//8 336//8
f 337//9 339//9 338//9
f 339//10 341//10 340//10
f 341//11 343//11 342//11
f 343//12 345//12 344//12
f 345//13 347//13 346//13
f 347//14 349//14 348//14
f 349//15 351//15 350//15
f 351//16 353//16 352//16
f 353//17 355//17 354//17
f 355//18 357//18 356//18
f 357//19 359//19 358//19
f 359//20 361//20 360//20
f 361//21 363//21 362//21
f 363//22 365//22 364//22
f 365//23 367//23 366//23
f 367//24 369//24 368//24
f 369//25 371//25 370//25
f 371//26 373//26 372//26
f 373//27 375//27 374//27
f 375//28 377//28 376//28
f 377//29 379//29 378//29
f 379//30 381//30 380//30
f 381//31 383//31 382//31
f 383//32 385//32 384//32
f 385//33 387//33 386//33
f 387//34 389//34 388//34
f 389//35 391//35 390//35
f 391//36 393//36 392//36
f 337//6 335//6 333//6
f 333//6 395//6 337//6
f 395//6 393//6 337//6
f 393//6 391//6 389//6
f 389//6 387//6 385//6
f 385//6 383//6 381//6
f 381//6 379//6 385//6
f 379//6 377//6 385//6
f 377//6 375//6 369//6
f 375//6 373//6 369//6
f 373//6 371//6 369//6
f 369//6 367//6 365//6
f 365//6 363//6 361//6
f 361//6 359//6 357//6
f 357//6 355//6 353//6
f 353//6 351//6 349//6
f 349//6 347//6 353//6
f 347//6 345//6 353//6
f 345//6 343//6 341//6
f 341//6 339//6 337//6
f 393//6 389//6 337//6
f 389//6 385//6 337//6
f 369//6 365//6 353//6
f 365//6 361//6 353//6
f 361//6 357//6 353//6
f 345//6 341//6 353//6
f 341//6 337//6 353//6
f 385//6 377//6 369//6
f 337//6 385//6 353//6
f 393//37 395//37 394//37
f 395//38 333//38 332//38
